<?xml version="1.0" encoding="utf-8"?>
<!-- Generator: Adobe Illustrator 23.1.0, SVG Export Plug-In . SVG Version: 6.00 Build 0)  -->
<svg version="1.1" id="Layer_1" xmlns="http://www.w3.org/2000/svg" xmlns:xlink="http://www.w3.org/1999/xlink" x="0px" y="0px"
	 viewBox="-432.721 -63.025 16.583 10.444" enable-background="new -432.721 -63.025 16.583 10.444" xml:space="preserve">
<rect x="-432.721" y="-63.024" fill="#FFFFFF" width="16.583" height="10.444"/>
<path fill="#141515" d="M-426.42-56.213l-0.053-0.052c-0.023,0.021-0.049,0.03-0.081,0.03c-0.032,0-0.058-0.009-0.08-0.03
	c-0.022-0.021-0.032-0.051-0.032-0.081c0-0.031,0.01-0.059,0.032-0.08c0.022-0.024,0.048-0.033,0.08-0.033
	c0.031,0,0.057,0.01,0.081,0.033l0.053-0.053c-0.032-0.03-0.077-0.057-0.134-0.057l0,0c-0.053,0-0.096,0.02-0.133,0.057
	c-0.036,0.036-0.055,0.08-0.055,0.133c0,0.05,0.018,0.095,0.055,0.133c0.037,0.036,0.081,0.056,0.133,0.056
	C-426.496-56.157-426.45-56.185-426.42-56.213L-426.42-56.213z M-425.861-56.535c-0.052,0-0.097,0.02-0.133,0.057
	c-0.036,0.036-0.055,0.08-0.055,0.133c0,0.051,0.019,0.095,0.055,0.133c0.037,0.036,0.082,0.056,0.133,0.056
	c0.053,0,0.097-0.018,0.134-0.056c0.036-0.038,0.055-0.082,0.055-0.133c0-0.053-0.019-0.097-0.055-0.133
	C-425.764-56.516-425.808-56.535-425.861-56.535L-425.861-56.535z M-425.861-56.459c0.031,0,0.058,0.01,0.08,0.033
	c0.022,0.021,0.034,0.049,0.034,0.08c0,0.03-0.011,0.06-0.034,0.078c-0.023,0.024-0.049,0.033-0.08,0.033
	c-0.031,0-0.058-0.009-0.08-0.033c-0.022-0.019-0.034-0.05-0.034-0.078c0-0.031,0.011-0.059,0.034-0.08
	C-425.919-56.449-425.892-56.459-425.861-56.459L-425.861-56.459z M-425.26-56.541v0.383h0.075v-0.157l0.108,0.146l0.107-0.146
	v0.157h0.074v-0.383l-0.181,0.25L-425.26-56.541z M-424.469-56.158h0.076v-0.116h0.055c0.037,0,0.067-0.011,0.092-0.035
	c0.025-0.025,0.039-0.055,0.039-0.093c0-0.035-0.014-0.065-0.039-0.091c-0.025-0.027-0.056-0.039-0.092-0.039h-0.13v0.258V-56.158z
	 M-424.283-56.403c0,0.031-0.025,0.057-0.056,0.057h-0.055v-0.113h0.055C-424.308-56.459-424.283-56.433-424.283-56.403
	L-424.283-56.403z M-423.885-56.158h0.08l0.025-0.057h0.128l0.024,0.057h0.082l-0.171-0.379L-423.885-56.158z M-423.749-56.282
	l0.032-0.077l0.036,0.077H-423.749z M-423.134-56.541v0.383h0.075v-0.209l0.225,0.214v-0.382h-0.076v0.209L-423.134-56.541z
	 M-422.422-56.532l0.116,0.213v0.161h0.072v-0.161l0.116-0.213h-0.085l-0.065,0.128l-0.068-0.128H-422.422z"/>
<image overflow="visible" opacity="0.5" width="15" height="2" xlink:href="8CA9EDC2.png"  transform="matrix(1 0 0 1 -430.7102 -55.9778)">
</image>
<g>
	<path fill-rule="evenodd" clip-rule="evenodd" fill="#EA3118" d="M-426.551-57.621c0,0.135-0.111,0.24-0.246,0.24
		c-0.135,0-0.247-0.105-0.247-0.24c0-0.135,0.111-0.241,0.247-0.241C-426.662-57.863-426.551-57.756-426.551-57.621z"/>
	<g>
		<path fill-rule="evenodd" clip-rule="evenodd" fill="#EA3118" d="M-427.738-56.572c-0.097,0.045-0.074-0.259-0.07-0.284
			c0.067-0.566,0.742-2.337,1.229-2.626c0.222-0.132,0.403,0.024,0.456,0.256c0.032,0.14,0.048,0.4,0.074,0.563
			c0.074,0.459,0.207,1.162,0.755,1.253c0.44,0.072,1.386-0.259,1.843-0.374c1.006-0.256,2.118-0.344,3.059,0.185
			c0.11,0.062,0.117,0.063,0.205,0.152c-0.122-0.013-0.132-0.023-0.246-0.058c-0.973-0.3-1.712-0.264-2.679,0.016
			c-0.577,0.166-1.398,0.519-1.962,0.559c-1.185,0.087-1.367-1.143-1.415-2.046c-0.003-0.04-0.006-0.074-0.009-0.107
			c-0.113,0.125-0.27,0.361-0.311,0.427C-427.007-58.343-427.809-56.87-427.738-56.572L-427.738-56.572z M-426.411-59.157
			c0.004,0,0.007-0.002,0.012-0.003C-426.404-59.16-426.407-59.159-426.411-59.157L-426.411-59.157z"/>
	</g>
</g>
</svg>
